# xmcd
#
# Track frame offsets:
#	150
#	13405
#	31252
#	50198
#	62027
#	83863
#	102522
#	120738
#	144113
#	167092
#	186523
#	206439
#	224536
#	241597
#	266485
#	282647
#	300953
#	321023
#
# Disc length: 4536 seconds
#
# Revision: 0
# Processed by: cddbd v1.5.2PL0 Copyright (c) Steve Scherf et al.
# Submitted via: dBpowerAMP V4.0
#
DISCID=0911b612
DTITLE=Jackie Greene - The DIG Years
DYEAR=2007
DGENRE=Blues
TTITLE0=Gone Wanderin'
TTITLE1=Travelin' Song
TTITLE2=Georgia
TTITLE3=Tell Me Mama, Tell Me Right
TTITLE4=Sweet Somewhere Bound (live)
TTITLE5=Gypsy Rose
TTITLE6=Mexican Girl
TTITLE7=Love Me Just A Little, I'm Down Here On My Knees
TTITLE8=The Ballad Of Sleepy John
TTITLE9=By The Side Of The Road, Dressed To Kill
TTITLE10=Talkin' Midtown Women
TTITLE11=The Red And The Rose
TTITLE12=The Rusty Nail
TTITLE13=Gettin' By
TTITLE14=I've Come Undone
TTITLE15=Falling Back
TTITLE16=Down In The Valley Woe
TTITLE17=Hidden Track
EXTD=Justin Eltoft
EXTT0=
EXTT1=
EXTT2=
EXTT3=
EXTT4=
EXTT5=
EXTT6=
EXTT7=
EXTT8=
EXTT9=
EXTT10=
EXTT11=
EXTT12=
EXTT13=
EXTT14=
EXTT15=
EXTT16=
EXTT17=
PLAYORDER=
